<svg width="24" height="24" viewBox="0 0 24 24" fill="none" xmlns="http://www.w3.org/2000/svg">
<g clip-path="url(#clip0_71_9)">
<path d="M3.99999 4.13798H23.2L20.8 14.8966H6.39999M20.8 18.2069H7.19999L3.19999 0.827637H0.799988" stroke="white" stroke-width="2" stroke-linecap="round" stroke-linejoin="round"/>
<path d="M19.2 23.1724C20.0837 23.1724 20.8 22.4314 20.8 21.5172C20.8 20.6031 20.0837 19.8621 19.2 19.8621C18.3163 19.8621 17.6 20.6031 17.6 21.5172C17.6 22.4314 18.3163 23.1724 19.2 23.1724Z" stroke="white" stroke-width="2" stroke-linecap="round" stroke-linejoin="round"/>
<path d="M8.80001 23.1724C9.68369 23.1724 10.4 22.4314 10.4 21.5172C10.4 20.6031 9.68369 19.8621 8.80001 19.8621C7.91636 19.8621 7.20001 20.6031 7.20001 21.5172C7.20001 22.4314 7.91636 23.1724 8.80001 23.1724Z" stroke="white" stroke-width="2" stroke-linecap="round" stroke-linejoin="round"/>
</g>
<defs>
<clipPath id="clip0_71_9">
<rect width="24" height="24" fill="white"/>
</clipPath>
</defs>
</svg>
